<?xml version="1.0"?>
<svg xmlns="http://www.w3.org/2000/svg" height="15px" viewBox="-58 0 511 512" width="15px"><path d="m384.5 308.839844c-2.628906 0-5.210938-1.058594-7.070312-2.929688-1.859376-1.851562-2.929688-4.429687-2.929688-7.0625 0-2.636718 1.070312-5.21875 2.929688-7.078125 1.859374-1.859375 4.441406-2.921875 7.070312-2.921875s5.210938 1.0625 7.070312 2.921875c1.859376 1.859375 2.929688 4.441407 2.929688 7.078125 0 2.632813-1.070312 5.210938-2.929688 7.0625-1.859374 1.871094-4.441406 2.929688-7.070312 2.929688zm0 0" fill="#D80027"/><path d="m328.746094 256.050781c-6.285156 0-12.097656-3.351562-15.285156-9.132812l-92-166.9375c-3.722657-6.75-3.601563-14.746094.316406-21.382813 3.921875-6.636718 10.867187-10.597656 18.574218-10.597656h88.535157c9.714843 0 17.613281 7.898438 17.613281 17.613281v172.800781c0 8.167969-5.3125 15.023438-13.222656 17.058594-1.515625.390625-3.039063.578125-4.53125.578125zm-88.394532-188.050781c-.222656 0-.898437 0-1.351562.769531-.457031.773438-.132812 1.363281-.023438 1.558594l87.523438 158.8125v-161.140625zm0 0" fill="#D80027"/><path d="m384.5 270c5.523438 0 10-4.476562 10-10v-202c0-31.980469-26.019531-58-58-58h-110.289062c-23.21875 0-45.046876 9.039062-61.464844 25.457031l-40.855469 40.855469-24.824219-24.824219c3.667969-3.921875 3.601563-10.066406-.222656-13.894531-3.90625-3.902344-10.234375-3.902344-14.144531 0l-67.9375 67.9375c-3.90625 3.90625-3.90625 10.238281 0 14.144531 1.953125 1.953125 4.511719 2.929688 7.070312 2.929688 2.058594 0 4.109375-.644531 5.851563-1.90625l24.910156 24.910156-28.636719 28.636719c-16.417969 16.417968-25.457031 38.246094-25.457031 61.464844v228.289062c0 31.980469 26.019531 58 58 58h278c31.980469 0 58-26.019531 58-58v-113c0-5.523438-4.476562-10-10-10s-10 4.476562-10 10v113c0 20.953125-17.046875 38-38 38h-278c-20.953125 0-38-17.046875-38-38v-228.289062c0-17.875 6.960938-34.683594 19.601562-47.320313l138.789063-138.789063c12.636719-12.640624 29.445313-19.601562 47.320313-19.601562h110.289062c20.953125 0 38 17.046875 38 38v202c0 5.523438 4.476562 10 10 10zm-315.8125-148.578125-24.765625-24.765625 41.015625-41.011719 24.761719 24.761719zm0 0" fill="#D80027"/><path d="m66.5 403c-5.523438 0-10-4.476562-10-10v-100c0-5.523438 4.476562-10 10-10s10 4.476562 10 10v100c0 5.523438-4.476562 10-10 10zm0 0" fill="#D80027"/><path d="m66.5 438.589844c-2.628906 0-5.210938-1.070313-7.070312-2.929688-1.859376-1.859375-2.929688-4.441406-2.929688-7.070312 0-2.640625 1.070312-5.210938 2.929688-7.070313 1.859374-1.859375 4.441406-2.929687 7.070312-2.929687s5.210938 1.070312 7.070312 2.929687c1.859376 1.859375 2.929688 4.441407 2.929688 7.070313s-1.070312 5.210937-2.929688 7.070312c-1.859374 1.859375-4.429687 2.929688-7.070312 2.929688zm0 0" fill="#D80027"/></svg>
