<svg fill="#00000080" height="20px" viewBox="0 0 443.25119 443" width="20px" xmlns="http://www.w3.org/2000/svg"><path d="m403.410156 39.917969c-25.46875-25.546875-60.085937-39.871094-96.160156-39.792969-4.417969 0-8 3.582031-8 8s3.582031 8 8 8c31.839844-.039062 62.382812 12.59375 84.894531 35.105469 22.515625 22.511719 35.144531 53.058593 35.105469 84.894531 0 4.417969 3.582031 8 8 8s8-3.582031 8-8c.078125-36.097656-14.261719-70.730469-39.839844-96.207031zm0 0"/><path d="m307.25 48.140625c.074219.011719.152344.011719.226562 0 48.511719.039063 87.792969 39.425781 87.710938 87.9375 0 4.417969 3.582031 8 8 8s8-3.582031 8-8c.078125-57.351563-46.371094-103.894531-103.71875-103.9375h-.21875c-4.417969 0-8 3.582031-8 8s3.582031 8 8 8zm0 0"/><path d="m307.25 80.15625c14.84375-.042969 29.09375 5.835938 39.589844 16.332031 10.5 10.496094 16.375 24.746094 16.332031 39.589844 0 4.417969 3.582031 8 8 8s8-3.582031 8-8c.042969-19.089844-7.519531-37.40625-21.015625-50.90625-13.5-13.496094-31.816406-21.058594-50.90625-21.015625-4.417969 0-8 3.582031-8 8 0 4.421875 3.582031 8 8 8zm0 0"/><path d="m154.507812 164.359375-130.503906-130.503906-16.96875 16.964843c-9.378906 9.375-9.378906 24.578126 0 33.953126l113.511719 113.511718zm0 0"/><path d="m290.265625 254.878906c-1.671875-.234375-3.304687-.601562-4.949219-.90625-1.144531-.214844-2.304687-.382812-3.441406-.628906-3.320312-.714844-6.609375-1.546875-9.839844-2.539062-.175781-.054688-.359375-.085938-.527344-.144532-3.402343-1.054687-6.730468-2.285156-10.015624-3.644531-1.042969-.425781-2.058594-.929687-3.089844-1.386719-2.230469-1-4.441406-2.03125-6.609375-3.160156-1.175781-.613281-2.316407-1.261719-3.46875-1.917969-2.007813-1.128906-4-2.320312-5.921875-3.570312-1.113282-.71875-2.222656-1.4375-3.320313-2.199219-2.015625-1.390625-4-2.871094-5.902343-4.398438-.914063-.714843-1.839844-1.394531-2.730469-2.136718-2.773438-2.3125-5.46875-4.726563-8.054688-7.3125-2.582031-2.582032-5-5.28125-7.3125-8.054688-.742187-.890625-1.421875-1.816406-2.136719-2.730468-1.527343-1.925782-3.007812-3.886719-4.398437-5.902344-.800781-1.097656-1.480469-2.207032-2.199219-3.320313-1.25-1.945312-2.402344-3.910156-3.570312-5.917969-.65625-1.152343-1.300782-2.296874-1.917969-3.472656-1.128906-2.167968-2.160156-4.378906-3.160156-6.609375-.457031-1.03125-.960938-2.046875-1.382813-3.085937-1.363281-3.289063-2.59375-6.617188-3.648437-10.019532-.058594-.167968-.089844-.351562-.144531-.527343-.992188-3.199219-1.824219-6.519531-2.535157-9.839844-.25-1.136719-.417969-2.296875-.632812-3.4375-.304688-1.648437-.671875-3.28125-.90625-4.953125l-73.597657 73.503906 101.910157 101.878906zm-134.214844-15.601562h-16v-16h16zm24 24h-16v-16h16zm0 0"/><path d="m358.554688 436.292969c9.386718 9.355469 24.566406 9.355469 33.953124 0l16.96875-16.96875-130.503906-130.503907-33.929687 33.960938zm0 0"/><path d="m203.25 137.109375c.390625 40.429687 24.179688 76.96875 60.992188 93.6875 36.816406 16.714844 79.980468 10.582031 110.679687-15.726563l-146.664063-146.664062c-16.464843 19.066406-25.359374 43.511719-25.007812 68.703125zm0 0"/><path d="m328.921875 146.476562c4.382813-9.175781 2.507813-20.121093-4.683594-27.3125-7.195312-7.191406-18.136719-9.070312-27.316406-4.6875zm0 0"/></svg>
