<svg height="25px" viewBox="0 0 436.688 436.688" width="25px" fill="#00000080" xmlns="http://www.w3.org/2000/svg"><path d="m436.6875 84.6875v-84.6875l-436.6875 436.6875h436.6875v-32h-40v-16h40v-32h-56v-16h56v-40h-40v-16h40v-32h-56v-16h56v-40h-40v-16h40v-32h-56v-16h56v-32h-40v-16zm-80 264c0 4.417969-3.582031 8-8 8h-136.230469c-3.234375 0-6.152343-1.949219-7.390625-4.9375-1.238281-2.988281-.554687-6.429688 1.734375-8.71875l136.230469-136.230469c2.289062-2.289062 5.730469-2.972656 8.71875-1.734375 2.988281 1.238282 4.9375 4.15625 4.9375 7.390625zm0 0"/></svg>
