<?xml version="1.0" encoding="iso-8859-1"?>
<!-- Generator: Adobe Illustrator 18.0.0, SVG Export Plug-In . SVG Version: 6.00 Build 0)  -->
<!DOCTYPE svg PUBLIC "-//W3C//DTD SVG 1.1//EN" "http://www.w3.org/Graphics/SVG/1.1/DTD/svg11.dtd">
<svg width="100px" height="55px" version="1.1" id="Capa_1" xmlns="http://www.w3.org/2000/svg" xmlns:xlink="http://www.w3.org/1999/xlink" x="0px"
     y="0px"
     viewBox="0 0 60.001 60.001"  style="enable-background:new 0 0 60.001 60.001;" xml:space="preserve">
<path d="M59.895,58.531l-29-58c-0.34-0.678-1.449-0.678-1.789,0l-29,58c-0.155,0.31-0.139,0.678,0.044,0.973
	C0.332,59.798,0.654,59.978,1,59.978h58c0.347,0,0.668-0.18,0.851-0.474C60.033,59.209,60.05,58.841,59.895,58.531z M2.618,57.978
	L30,3.214l27.382,54.764H2.618z"/>
    <svg width="20px" height="20px" version="1.1" id="Capa_1" xmlns="http://www.w3.org/2000/svg"
         xmlns:xlink="http://www.w3.org/1999/xlink" x="20px" y="16px"
         viewBox="0 0 60 60" style="enable-background:new 0 0 60 60;" xml:space="preserve">
<path d="M30,0C13.458,0,0,13.458,0,30s13.458,30,30,30s30-13.458,30-30S46.542,0,30,0z M45.563,30.826l-22,15
	C23.394,45.941,23.197,46,23,46c-0.16,0-0.321-0.038-0.467-0.116C22.205,45.711,22,45.371,22,45V15c0-0.371,0.205-0.711,0.533-0.884
	c0.328-0.174,0.724-0.15,1.031,0.058l22,15C45.836,29.36,46,29.669,46,30S45.836,30.64,45.563,30.826z"/>
        <g>
</g>
        <g>
</g>
        <g>
</g>
        <g>
</g>
        <g>
</g>
        <g>
</g>
        <g>
</g>
        <g>
</g>
        <g>
</g>
        <g>
</g>
        <g>
</g>
        <g>
</g>
        <g>
</g>
        <g>
</g>
        <g>
</g>
</svg>

    <svg version="1.1" id="Capa_1" xmlns="http://www.w3.org/2000/svg" xmlns:xlink="http://www.w3.org/1999/xlink" x="30px"
         y="38px"
         width="18px" height="18px" viewBox="0 0 459 459" style="enable-background:new 0 0 459 459;" xml:space="preserve">
<g>
	<g id="drive-ms-powerpoint">
		<path d="M408,0H51C22.95,0,0,22.95,0,51v357c0,28.05,22.95,51,51,51h357c28.05,0,51-22.95,51-51V51C459,22.95,436.05,0,408,0z
			 M173.4,265.2V357h-45.9V102h109.65c38.25,0,56.1,7.65,71.399,22.95c17.851,15.3,22.95,35.7,22.95,58.65
			c0,25.5-7.65,45.9-22.95,58.65s-33.149,20.4-71.399,20.4H173.4V265.2z"/>
        <path d="M173.4,229.5v-91.8h58.65c17.851,0,30.601,5.1,38.25,15.3c7.65,10.2,12.75,17.85,12.75,30.6c0,15.3-5.1,22.95-12.75,33.15
			c-7.649,7.65-17.85,12.75-35.7,12.75H173.4z"/>
	</g>
</g>
        <g>
</g>
        <g>
</g>
        <g>
</g>
        <g>
</g>
        <g>
</g>
        <g>
</g>
        <g>
</g>
        <g>
</g>
        <g>
</g>
        <g>
</g>
        <g>
</g>
        <g>
</g>
        <g>
</g>
        <g>
</g>
        <g>
</g>
</svg>

    <svg width="19px" height="20px" version="1.1" id="Capa_1" xmlns="http://www.w3.org/2000/svg"
         xmlns:xlink="http://www.w3.org/1999/xlink" x="10px" y="37px"
         viewBox="0 0 60 60" style="enable-background:new 0 0 60 60;" xml:space="preserve">
<path d="M30,0C13.458,0,0,13.458,0,30s13.458,30,30,30s30-13.458,30-30S46.542,0,30,0z M44,44H16V16h28V44z"/>
        <g>
</g>
        <g>
</g>
        <g>
</g>
        <g>
</g>
        <g>
</g>
        <g>
</g>
        <g>
</g>
        <g>
</g>
        <g>
</g>
        <g>
</g>
        <g>
</g>
        <g>
</g>
        <g>
</g>
        <g>
</g>
        <g>
</g>
</svg>
</svg>
