<?xml version="1.0" standalone="no"?>
<!DOCTYPE svg PUBLIC "-//W3C//DTD SVG 20010904//EN"
 "http://www.w3.org/TR/2001/REC-SVG-20010904/DTD/svg10.dtd">
<svg version="1.0" xmlns="http://www.w3.org/2000/svg"
 width="200.000000pt" height="200.000000pt" viewBox="0 0 200.000000 200.000000"
 preserveAspectRatio="xMidYMid meet">
<metadata>
Created by potrace 1.15, written by Peter Selinger 2001-2017
</metadata>
<g transform="translate(0.000000,200.000000) scale(0.100000,-0.100000)"
fill="#000000" stroke="none">
<path d="M600 1620 l0 -120 70 0 70 0 0 -570 0 -570 160 0 160 0 0 -50 0 -50
170 0 170 0 0 120 0 120 -170 0 -170 0 0 -50 0 -50 -140 0 -140 0 0 190 0 190
140 0 140 0 0 -50 0 -50 170 0 170 0 0 120 0 120 -170 0 -170 0 0 -50 0 -50
-140 0 -140 0 0 180 0 180 140 0 140 0 0 -50 0 -50 170 0 170 0 0 120 0 120
-170 0 -170 0 0 -50 0 -50 -140 0 -140 0 0 140 0 140 80 0 80 0 0 120 0 120
-170 0 -170 0 0 -120z m300 0 l0 -80 -130 0 -130 0 0 80 0 80 130 0 130 0 0
-80z m460 -420 l0 -80 -130 0 -130 0 0 80 0 80 130 0 130 0 0 -80z m0 -400 l0
-80 -130 0 -130 0 0 80 0 80 130 0 130 0 0 -80z m0 -420 l0 -80 -130 0 -130 0
0 80 0 80 130 0 130 0 0 -80z"/>
</g>
</svg>
