<?xml version="1.0" standalone="no"?>
<!DOCTYPE svg PUBLIC "-//W3C//DTD SVG 20010904//EN"
 "http://www.w3.org/TR/2001/REC-SVG-20010904/DTD/svg10.dtd">
<svg version="1.0" xmlns="http://www.w3.org/2000/svg"
 width="256.000000pt" height="256.000000pt" viewBox="0 0 256.000000 256.000000"
 preserveAspectRatio="xMidYMid meet">
<metadata>
Created by potrace 1.15, written by Peter Selinger 2001-2017
</metadata>
<g transform="translate(0.000000,256.000000) scale(0.100000,-0.100000)"
fill="#000000" stroke="none">
<path d="M767 2543 c-4 -3 -7 -234 -7 -513 0 -380 3 -509 12 -518 9 -9 76 -12
240 -12 l228 0 0 -125 0 -125 -485 0 c-469 0 -485 -1 -495 -19 -6 -12 -10
-134 -10 -325 l0 -306 -108 0 c-71 0 -114 -4 -125 -12 -16 -12 -17 -39 -15
-298 l3 -285 289 -3 c225 -2 291 1 298 10 4 7 8 135 8 285 0 234 -2 274 -16
287 -12 13 -39 16 -130 16 l-114 0 0 280 0 280 450 0 450 0 0 -280 0 -280
-113 0 c-75 0 -119 -4 -130 -12 -16 -12 -17 -39 -15 -298 l3 -285 295 0 295 0
3 285 c2 259 1 286 -15 298 -11 8 -55 12 -130 12 l-113 0 0 280 0 280 450 0
450 0 0 -280 0 -280 -114 0 c-91 0 -118 -3 -130 -16 -14 -13 -16 -53 -16 -287
0 -150 4 -278 8 -285 7 -9 73 -12 298 -10 l289 3 3 285 c2 259 1 286 -15 298
-11 8 -54 12 -125 12 l-108 0 0 306 c0 191 -4 313 -10 325 -10 18 -26 19 -495
19 l-485 0 0 125 0 125 229 0 c181 0 231 3 240 14 8 9 10 155 9 522 l-3 509
-511 3 c-281 1 -514 -1 -517 -5z m953 -518 l0 -435 -440 0 -440 0 0 435 0 435
440 0 440 0 0 -435z m-1210 -1730 l0 -215 -210 0 -210 0 0 215 0 215 210 0
210 0 0 -215z m980 0 l0 -215 -210 0 -210 0 0 215 0 215 210 0 210 0 0 -215z
m980 0 l0 -215 -210 0 -210 0 0 215 0 215 210 0 210 0 0 -215z"/>
</g>
</svg>
