<?xml version="1.0" encoding="iso-8859-1"?>
<!-- Generator: Adobe Illustrator 16.0.0, SVG Export Plug-In . SVG Version: 6.00 Build 0)  -->
<!DOCTYPE svg PUBLIC "-//W3C//DTD SVG 1.1//EN" "http://www.w3.org/Graphics/SVG/1.1/DTD/svg11.dtd">
<svg version="1.1" id="Capa_1" xmlns="http://www.w3.org/2000/svg" xmlns:xlink="http://www.w3.org/1999/xlink" x="0px" y="0px"
	 width="15px" height="15px" viewBox="0 0 960.216 960.216" style="enable-background:new 0 0 960.216 960.216;"
	 xml:space="preserve">
<g>
	<g>
		<path d="M23.857,77.693v719.59c0,9.665,7.835,17.5,17.5,17.5c9.665,0,17.5-7.835,17.5-17.5V77.693c0-9.665-7.835-17.5-17.5-17.5
			C31.692,60.193,23.857,68.029,23.857,77.693z"/>
		<path d="M646.808,87.833c0-5.243-3.907-11.904-8.778-14.759c-166.054-97.431-371.918-97.431-537.972-0.001
			c-4.868,2.856-8.779,9.519-8.779,14.76c0,117.844,0,235.688,0,353.531c0,5.247,3.911,7.085,8.779,4.229
			c59.655-35.002,124.448-57.429,190.688-67.282V222.465c0-22.145,18.017-40.161,40.162-40.161c16.944,0,31.461,10.553,37.35,25.428
			c2.91-3.544,6.364-6.604,10.219-8.863c81.458-47.795,173.991-73.943,268.334-75.957C646.808,111.22,646.808,99.525,646.808,87.833
			z"/>
		<path d="M349.067,942.055V372.911V222.465c0-10.03-8.131-18.161-18.161-18.161s-18.162,8.131-18.162,18.161v153.059v566.53
			c0,10.03,8.131,18.161,18.162,18.161S349.067,952.085,349.067,942.055z"/>
		<path d="M931.838,591.706c2.701,0,4.521-1.993,4.521-5.572c0-117.843,0-235.687,0-353.53c-0.003-5.241-3.907-11.903-8.779-14.76
			c-83.027-48.715-176.006-73.073-268.986-73.073c-3.929,0-7.856,0.06-11.784,0.147c-89.034,1.971-177.683,26.269-257.201,72.926
			c-4.871,2.856-8.776,9.519-8.779,14.76c0,46.688,0,93.376,0,140.064c0,71.156,0,142.312,0,213.466c0,3.578,1.817,5.572,4.52,5.572
			c1.259,0,2.711-0.433,4.26-1.341c83.027-48.715,176.006-73.073,268.986-73.073c92.979,0,185.959,24.358,268.985,73.073
			C929.127,591.273,930.578,591.706,931.838,591.706z"/>
	</g>
</g>
<g>
</g>
<g>
</g>
<g>
</g>
<g>
</g>
<g>
</g>
<g>
</g>
<g>
</g>
<g>
</g>
<g>
</g>
<g>
</g>
<g>
</g>
<g>
</g>
<g>
</g>
<g>
</g>
<g>
</g>
</svg>
