<?xml version="1.0" standalone="no"?>
<!DOCTYPE svg PUBLIC "-//W3C//DTD SVG 20010904//EN"
 "http://www.w3.org/TR/2001/REC-SVG-20010904/DTD/svg10.dtd">
<svg version="1.0" xmlns="http://www.w3.org/2000/svg"
 width="256.000000pt" height="256.000000pt" viewBox="0 0 256.000000 256.000000"
 preserveAspectRatio="xMidYMid meet">
<metadata>
Created by potrace 1.15, written by Peter Selinger 2001-2017
</metadata>
<g transform="translate(0.000000,256.000000) scale(0.100000,-0.100000)"
fill="#000000" stroke="none">
<path d="M20 1900 c-27 -27 -27 -93 0 -120 20 -20 33 -20 1260 -20 1227 0
1240 0 1260 20 27 27 27 93 0 120 -20 20 -33 20 -1260 20 -1227 0 -1240 0
-1260 -20z"/>
<path d="M20 1340 c-27 -27 -27 -93 0 -120 20 -20 33 -20 1260 -20 1227 0
1240 0 1260 20 27 27 27 93 0 120 -20 20 -33 20 -1260 20 -1227 0 -1240 0
-1260 -20z"/>
<path d="M820 780 c-13 -13 -20 -33 -20 -60 0 -27 7 -47 20 -60 20 -20 33 -20
860 -20 827 0 840 0 860 20 13 13 20 33 20 60 0 27 -7 47 -20 60 -20 20 -33
20 -860 20 -827 0 -840 0 -860 -20z"/>
</g>
</svg>
