<?xml version="1.0" encoding="iso-8859-1"?>
<!-- Generator: Adobe Illustrator 19.0.0, SVG Export Plug-In . SVG Version: 6.00 Build 0)  -->
<svg fill="#00000080"  width="20px" height="20px" version="1.1" id="Capa_1" xmlns="http://www.w3.org/2000/svg" xmlns:xlink="http://www.w3.org/1999/xlink" x="0px" y="0px"
	 viewBox="0 0 511.999 511.999" style="enable-background:new 0 0 511.999 511.999;"   xml:space="preserve">
<g>
	<g>
		<polygon points="448.217,207.696 343.903,343.134 345.292,377.598 378.968,370.141 483.205,234.802 		"/>
	</g>
</g>
<g>
	<g>
		<path d="M511.811,187.038c-0.761-5.862-3.759-11.077-8.442-14.684c-4.684-3.608-10.491-5.176-16.353-4.413
			c-5.862,0.761-11.076,3.759-14.684,8.442l-4.408,5.723l34.989,27.106l4.484-5.822v0.001
			C511.005,198.707,512.573,192.899,511.811,187.038z"/>
	</g>
</g>
<g>
	<g>
		<path d="M400.98,394.496c-2.311,3.002-5.605,5.095-9.304,5.914l-58.253,12.899c-1.157,0.256-2.328,0.381-3.492,0.381
			c-3.533,0-7.005-1.16-9.855-3.355c-3.788-2.917-6.089-7.367-6.282-12.145l-1.742-43.227h-207.63
			c-8.919,0-16.151-7.231-16.151-16.151c0-8.919,7.231-16.151,16.151-16.151h214.474l17.148-22.264
			c-0.878,0.147-1.774,0.242-2.695,0.242H104.423c-8.919,0-16.151-7.231-16.151-16.151c0-8.919,7.231-16.151,16.151-16.151H333.35
			c8.424,0,15.334,6.452,16.076,14.684l83.106-107.901c0.002-0.002,0.003-0.004,0.004-0.006s0.003-0.003,0.004-0.005l5.233-6.794
			V25.889c0-8.919-7.231-16.151-16.151-16.151H16.151C7.231,9.739,0,16.969,0,25.889v460.222c0,8.919,7.231,16.151,16.151,16.151
			h405.473c8.919,0,16.151-7.231,16.151-16.151V346.725L400.98,394.496z M320.489,102.712c19.074,0,35.843,12.858,40.778,31.268
			c2.31,8.615-2.802,17.471-11.418,19.781c-8.606,2.308-17.471-2.801-19.781-11.418c-1.158-4.316-5.097-7.331-9.58-7.331
			c-5.468,0-9.916,4.448-9.916,9.916c0,1.561,0.148,1.766,1.315,2.645c2.735,2.063,7.973,3.973,13.039,5.822
			c14.129,5.154,37.778,13.781,37.778,42.275c0,23.278-18.939,42.216-42.217,42.216c-19.832,0-36.758-13.491-41.162-32.809
			c-1.982-8.696,3.461-17.354,12.157-19.336c8.692-1.984,17.354,3.46,19.336,12.157c1.015,4.454,5.082,7.687,9.669,7.687
			c5.468,0,9.916-4.447,9.916-9.915c0-4.379-0.801-6.186-16.547-11.93c-13.31-4.854-35.587-12.981-35.587-38.812
			C278.271,121.651,297.211,102.712,320.489,102.712z M175.539,144.929c0-23.278,18.938-42.217,42.216-42.217
			c23.279,0,42.217,18.939,42.217,42.217v50.743c0,23.278-18.938,42.216-42.216,42.216h-0.001
			c-23.278,0-42.216-18.938-42.216-42.216V144.929z M76.124,205.079c-1.982-8.696,3.461-17.354,12.157-19.336
			c8.692-1.984,17.353,3.46,19.336,12.157c1.015,4.454,5.081,7.687,9.668,7.687c5.468,0,9.916-4.447,9.916-9.915
			c0-4.379-0.801-6.186-16.547-11.93c-13.31-4.854-35.587-12.982-35.587-38.812c0-23.278,18.938-42.217,42.216-42.217
			c19.074,0,35.843,12.858,40.778,31.268c2.31,8.615-2.802,17.471-11.417,19.781c-8.619,2.31-17.472-2.802-19.781-11.418
			c-1.157-4.316-5.097-7.331-9.579-7.331c-5.468,0-9.916,4.448-9.916,9.916c0,1.55,0.165,1.778,1.315,2.645
			c2.734,2.063,7.973,3.973,13.039,5.822c14.129,5.154,37.778,13.781,37.778,42.275c0,23.278-18.938,42.216-42.216,42.216
			C97.453,237.887,80.528,224.396,76.124,205.079z M259.483,409.287h-155.06c-8.919,0-16.151-7.231-16.151-16.151
			c0-8.919,7.231-16.151,16.151-16.151h155.06c8.919,0,16.151,7.231,16.151,16.151S268.402,409.287,259.483,409.287z"/>
	</g>
</g>
<g>
	<g>
		<path d="M217.755,135.013c-5.468,0-9.916,4.448-9.916,9.916v50.743c0,5.467,4.448,9.915,9.916,9.915
			c5.468,0,9.916-4.447,9.916-9.915v-50.743C227.671,139.462,223.223,135.013,217.755,135.013z"/>
	</g>
</g>
<g>
</g>
<g>
</g>
<g>
</g>
<g>
</g>
<g>
</g>
<g>
</g>
<g>
</g>
<g>
</g>
<g>
</g>
<g>
</g>
<g>
</g>
<g>
</g>
<g>
</g>
<g>
</g>
<g>
</g>
</svg>
